<svg width="366" height="86" viewBox="0 0 366 86" fill="none" xmlns="http://www.w3.org/2000/svg">
<path d="M10.45 2.03999H61.05V17.44H26.4V35.81H56.43V51.21H26.4V83H10.45V2.03999ZM136.709 2.03999C141.769 2.03999 146.279 2.69999 150.239 4.01999C154.199 5.26666 157.499 7.1 160.139 9.52C162.852 11.8667 164.905 14.7267 166.299 18.1C167.692 21.4 168.389 25.14 168.389 29.32C168.389 32.62 167.875 35.92 166.849 39.22C165.895 42.52 164.282 45.5267 162.009 48.24C159.809 50.9533 156.875 53.1533 153.209 54.84C149.542 56.4533 144.995 57.26 139.569 57.26H128.129V83H112.179V2.03999H136.709ZM139.459 41.86C141.879 41.86 143.895 41.4567 145.509 40.65C147.122 39.8433 148.369 38.8167 149.249 37.57C150.202 36.3233 150.862 35.04 151.229 33.72C151.669 32.3267 151.889 31.0433 151.889 29.87C151.889 28.99 151.742 27.89 151.449 26.57C151.229 25.1767 150.715 23.7833 149.909 22.39C149.102 20.9967 147.855 19.8233 146.169 18.87C144.555 17.9167 142.355 17.44 139.569 17.44H128.129V41.86H139.459ZM154.419 51.76L174.439 83H155.849L135.389 52.2L154.419 51.76ZM237.66 53.08C237.66 55.6467 238.43 58.1033 239.97 60.45C241.51 62.7967 243.527 64.7033 246.02 66.17C248.587 67.6367 251.373 68.37 254.38 68.37C257.68 68.37 260.613 67.6367 263.18 66.17C265.747 64.7033 267.763 62.7967 269.23 60.45C270.77 58.1033 271.54 55.6467 271.54 53.08V2.03999H287.27V53.41C287.27 59.35 285.803 64.63 282.87 69.25C279.937 73.7967 275.977 77.39 270.99 80.03C266.003 82.5967 260.467 83.88 254.38 83.88C248.367 83.88 242.867 82.5967 237.88 80.03C232.967 77.39 229.043 73.7967 226.11 69.25C223.177 64.63 221.71 59.35 221.71 53.41V2.03999H237.66V53.08Z" fill="black"/>
<rect x="10" y="32" width="278" height="22" fill="#F3F2F2"/>
<path d="M23.496 33.648H33.792V35.88H25.824V41.424H32.808V43.632H25.824V51H23.496V33.648ZM50.4758 51.24C49.5478 51.24 48.6998 51.04 47.9318 50.64C47.1798 50.24 46.5798 49.656 46.1318 48.888C45.6998 48.104 45.4838 47.152 45.4838 46.032C45.4838 44.928 45.7158 43.976 46.1798 43.176C46.6438 42.36 47.2598 41.736 48.0278 41.304C48.8118 40.872 49.6678 40.656 50.5958 40.656C51.5238 40.656 52.3078 40.872 52.9478 41.304C53.5878 41.72 54.0758 42.216 54.4118 42.792L54.2678 43.176L54.4838 41.064H56.5478V51H54.3158V48.408L54.5558 48.984C54.4918 49.144 54.3478 49.352 54.1238 49.608C53.9158 49.848 53.6278 50.096 53.2598 50.352C52.9078 50.608 52.4998 50.824 52.0358 51C51.5718 51.16 51.0518 51.24 50.4758 51.24ZM51.0758 49.392C51.6358 49.392 52.1398 49.288 52.5878 49.08C53.0358 48.872 53.4038 48.584 53.6918 48.216C53.9958 47.832 54.2038 47.376 54.3158 46.848V44.904C54.1878 44.424 53.9638 44.008 53.6438 43.656C53.3238 43.288 52.9398 43.008 52.4918 42.816C52.0438 42.608 51.5478 42.504 51.0038 42.504C50.4118 42.504 49.8678 42.648 49.3718 42.936C48.8758 43.224 48.4758 43.624 48.1718 44.136C47.8838 44.648 47.7398 45.248 47.7398 45.936C47.7398 46.576 47.8918 47.16 48.1958 47.688C48.4998 48.216 48.9078 48.632 49.4198 48.936C49.9318 49.24 50.4838 49.392 51.0758 49.392ZM73.7543 51.192C73.0503 51.192 72.3623 51.072 71.6903 50.832C71.0343 50.576 70.4903 50.2 70.0583 49.704L70.9943 48.408C71.4103 48.808 71.8343 49.112 72.2663 49.32C72.7143 49.512 73.1543 49.608 73.5863 49.608C73.9063 49.608 74.2023 49.568 74.4743 49.488C74.7463 49.408 74.9623 49.28 75.1223 49.104C75.2983 48.912 75.3863 48.656 75.3863 48.336C75.3863 47.984 75.2663 47.704 75.0263 47.496C74.8023 47.288 74.5063 47.12 74.1383 46.992C73.7863 46.864 73.4103 46.744 73.0103 46.632C72.1943 46.36 71.5703 45.984 71.1383 45.504C70.7063 45.024 70.4903 44.44 70.4903 43.752C70.4903 43.224 70.6183 42.736 70.8743 42.288C71.1463 41.824 71.5383 41.448 72.0503 41.16C72.5783 40.872 73.2263 40.728 73.9943 40.728C74.6823 40.728 75.2983 40.816 75.8423 40.992C76.3863 41.152 76.8983 41.424 77.3783 41.808L76.4903 43.2C76.2023 42.896 75.8583 42.672 75.4583 42.528C75.0583 42.384 74.6983 42.304 74.3783 42.288C74.1063 42.272 73.8423 42.312 73.5863 42.408C73.3463 42.504 73.1463 42.64 72.9863 42.816C72.8263 42.992 72.7463 43.2 72.7463 43.44C72.7463 43.776 72.8583 44.048 73.0823 44.256C73.3063 44.464 73.5943 44.632 73.9463 44.76C74.3143 44.872 74.6743 44.992 75.0263 45.12C75.5223 45.264 75.9623 45.456 76.3463 45.696C76.7303 45.936 77.0343 46.232 77.2583 46.584C77.4983 46.936 77.6183 47.376 77.6183 47.904C77.6183 48.496 77.4743 49.048 77.1863 49.56C76.9143 50.056 76.4903 50.456 75.9143 50.76C75.3543 51.048 74.6343 51.192 73.7543 51.192ZM91.3037 51V32.424H93.4877V43.368L93.4397 42.96C93.7757 42.304 94.2877 41.76 94.9757 41.328C95.6797 40.896 96.5037 40.68 97.4477 40.68C98.3917 40.68 99.1597 40.96 99.7517 41.52C100.36 42.064 100.672 42.776 100.688 43.656V51H98.4317V44.448C98.4157 43.904 98.2557 43.464 97.9517 43.128C97.6637 42.776 97.2077 42.6 96.5837 42.6C96.0077 42.6 95.4877 42.768 95.0237 43.104C94.5597 43.424 94.1917 43.864 93.9197 44.424C93.6637 44.984 93.5357 45.624 93.5357 46.344V51H91.3037ZM115.129 41.064H117.361V51H115.129V41.064ZM114.961 37.464C114.961 37.112 115.097 36.816 115.369 36.576C115.657 36.336 115.969 36.216 116.305 36.216C116.641 36.216 116.937 36.336 117.193 36.576C117.465 36.816 117.601 37.112 117.601 37.464C117.601 37.832 117.465 38.136 117.193 38.376C116.937 38.6 116.641 38.712 116.305 38.712C115.969 38.712 115.657 38.592 115.369 38.352C115.097 38.112 114.961 37.816 114.961 37.464ZM130.919 45.936C130.919 44.944 131.151 44.048 131.615 43.248C132.095 42.448 132.751 41.816 133.583 41.352C134.415 40.888 135.359 40.656 136.415 40.656C137.503 40.656 138.455 40.888 139.271 41.352C140.087 41.816 140.719 42.448 141.167 43.248C141.615 44.048 141.839 44.944 141.839 45.936C141.839 46.928 141.615 47.832 141.167 48.648C140.719 49.448 140.079 50.08 139.247 50.544C138.431 51.008 137.479 51.24 136.391 51.24C135.335 51.24 134.391 51.024 133.559 50.592C132.743 50.144 132.095 49.528 131.615 48.744C131.151 47.944 130.919 47.008 130.919 45.936ZM133.151 45.96C133.151 46.6 133.295 47.184 133.583 47.712C133.871 48.224 134.255 48.632 134.735 48.936C135.231 49.24 135.775 49.392 136.367 49.392C136.991 49.392 137.543 49.24 138.023 48.936C138.519 48.632 138.903 48.224 139.175 47.712C139.447 47.184 139.583 46.6 139.583 45.96C139.583 45.32 139.447 44.744 139.175 44.232C138.903 43.704 138.519 43.288 138.023 42.984C137.543 42.664 136.991 42.504 136.367 42.504C135.759 42.504 135.207 42.664 134.711 42.984C134.231 43.304 133.847 43.728 133.559 44.256C133.287 44.768 133.151 45.336 133.151 45.96ZM157.413 41.064L157.605 43.488L157.509 43.104C157.829 42.368 158.349 41.784 159.069 41.352C159.789 40.904 160.621 40.68 161.565 40.68C162.509 40.68 163.277 40.96 163.869 41.52C164.477 42.064 164.789 42.776 164.805 43.656V51H162.549V44.448C162.533 43.904 162.373 43.464 162.069 43.128C161.781 42.776 161.325 42.6 160.701 42.6C160.125 42.6 159.605 42.76 159.141 43.08C158.677 43.4 158.309 43.84 158.037 44.4C157.781 44.96 157.653 45.608 157.653 46.344V51H155.421V41.064H157.413ZM202.561 33.648C203.441 33.648 204.249 33.768 204.985 34.008C205.737 34.232 206.385 34.576 206.929 35.04C207.489 35.488 207.921 36.048 208.225 36.72C208.545 37.376 208.705 38.144 208.705 39.024C208.705 39.712 208.601 40.384 208.393 41.04C208.201 41.696 207.873 42.296 207.409 42.84C206.945 43.368 206.337 43.8 205.585 44.136C204.849 44.456 203.937 44.616 202.849 44.616H200.281V51H197.953V33.648H202.561ZM202.801 42.384C203.489 42.384 204.057 42.28 204.505 42.072C204.969 41.864 205.329 41.6 205.585 41.28C205.841 40.944 206.025 40.584 206.137 40.2C206.249 39.816 206.305 39.456 206.305 39.12C206.305 38.768 206.241 38.408 206.113 38.04C206.001 37.656 205.809 37.304 205.537 36.984C205.281 36.664 204.937 36.4 204.505 36.192C204.089 35.984 203.577 35.88 202.969 35.88H200.281V42.384H202.801ZM205.657 43.704L210.193 51H207.505L202.897 43.776L205.657 43.704ZM244.575 44.856C244.575 45.64 244.759 46.344 245.127 46.968C245.511 47.576 246.015 48.056 246.639 48.408C247.263 48.76 247.967 48.936 248.751 48.936C249.567 48.936 250.295 48.76 250.935 48.408C251.575 48.056 252.079 47.576 252.447 46.968C252.815 46.344 252.999 45.64 252.999 44.856V33.648H255.279V44.928C255.279 46.192 254.983 47.296 254.391 48.24C253.815 49.184 253.031 49.912 252.039 50.424C251.063 50.936 249.967 51.192 248.751 51.192C247.535 51.192 246.439 50.936 245.463 50.424C244.487 49.912 243.711 49.184 243.135 48.24C242.559 47.296 242.271 46.192 242.271 44.928V33.648H244.575V44.856ZM272.833 51.192C272.129 51.192 271.441 51.072 270.769 50.832C270.113 50.576 269.569 50.2 269.137 49.704L270.073 48.408C270.489 48.808 270.913 49.112 271.345 49.32C271.793 49.512 272.233 49.608 272.665 49.608C272.985 49.608 273.281 49.568 273.553 49.488C273.825 49.408 274.041 49.28 274.201 49.104C274.377 48.912 274.465 48.656 274.465 48.336C274.465 47.984 274.345 47.704 274.105 47.496C273.881 47.288 273.585 47.12 273.217 46.992C272.865 46.864 272.489 46.744 272.089 46.632C271.273 46.36 270.649 45.984 270.217 45.504C269.785 45.024 269.569 44.44 269.569 43.752C269.569 43.224 269.697 42.736 269.953 42.288C270.225 41.824 270.617 41.448 271.129 41.16C271.657 40.872 272.305 40.728 273.073 40.728C273.761 40.728 274.377 40.816 274.921 40.992C275.465 41.152 275.977 41.424 276.457 41.808L275.569 43.2C275.281 42.896 274.937 42.672 274.537 42.528C274.137 42.384 273.777 42.304 273.457 42.288C273.185 42.272 272.921 42.312 272.665 42.408C272.425 42.504 272.225 42.64 272.065 42.816C271.905 42.992 271.825 43.2 271.825 43.44C271.825 43.776 271.937 44.048 272.161 44.256C272.385 44.464 272.673 44.632 273.025 44.76C273.393 44.872 273.753 44.992 274.105 45.12C274.601 45.264 275.041 45.456 275.425 45.696C275.809 45.936 276.113 46.232 276.337 46.584C276.577 46.936 276.697 47.376 276.697 47.904C276.697 48.496 276.553 49.048 276.265 49.56C275.993 50.056 275.569 50.456 274.993 50.76C274.433 51.048 273.713 51.192 272.833 51.192Z" fill="black"/>
</svg>
