<svg width="107" height="24" viewBox="0 0 107 24" fill="none" xmlns="http://www.w3.org/2000/svg">
<path d="M22 22L16.9332 17.4158M16.9332 17.4158C17.7999 16.6316 18.4874 15.7007 18.9565 14.6762C19.4255 13.6516 19.6669 12.5535 19.6669 11.4446C19.6669 10.3356 19.4255 9.23751 18.9565 8.21297C18.4874 7.18843 17.7999 6.25751 16.9332 5.47336C16.0665 4.68921 15.0376 4.06718 13.9052 3.6428C12.7728 3.21843 11.5592 3 10.3335 3C9.10778 3 7.89409 3.21843 6.7617 3.6428C5.62932 4.06718 4.6004 4.68921 3.73371 5.47336C1.98334 7.05702 1 9.20493 1 11.4446C1 13.6842 1.98334 15.8321 3.73371 17.4158C5.48407 18.9994 7.85808 19.8891 10.3335 19.8891C12.8089 19.8891 15.1829 18.9994 16.9332 17.4158Z" stroke="black" stroke-linecap="round" stroke-linejoin="round"/>
<path d="M59.287 2C56.8056 2 54.6667 3.10761 53.5 4.94239C52.3333 3.10761 50.1944 2 47.713 2C45.9332 2.00201 44.227 2.66687 42.9685 3.84872C41.7101 5.03058 41.0021 6.63295 41 8.30435C41 11.412 43.0833 14.6598 47.1806 17.9554C49.0723 19.4673 51.115 20.8043 53.2801 21.9478C53.3477 21.9821 53.4232 22 53.5 22C53.5768 22 53.6523 21.9821 53.7199 21.9478C55.885 20.8043 57.9277 19.4673 59.8194 17.9554C63.9167 14.6598 66 11.412 66 8.30435C65.9979 6.63295 65.2899 5.03058 64.0314 3.84872C62.773 2.66687 61.0668 2.00201 59.287 2ZM53.5 21.0674C51.8796 20.2022 41.9259 14.6163 41.9259 8.30435C41.9278 6.86348 42.5381 5.48213 43.6229 4.46328C44.7078 3.44444 46.1787 2.87129 47.713 2.86956C50.1562 2.86956 52.2095 4.09891 53.0718 6.07717C53.1066 6.15692 53.166 6.22512 53.2422 6.27312C53.3185 6.32112 53.4082 6.34675 53.5 6.34675C53.5918 6.34675 53.6815 6.32112 53.7578 6.27312C53.834 6.22512 53.8934 6.15692 53.9282 6.07717C54.7905 4.09891 56.8437 2.86956 59.287 2.86956C60.8213 2.87129 62.2922 3.44444 63.3771 4.46328C64.4619 5.48213 65.0722 6.86348 65.0741 8.30435C65.0741 14.6087 55.1204 20.2022 53.5 21.0674Z" fill="black"/>
<path d="M103.544 5.64C103.489 5.57663 103.42 5.52563 103.342 5.49064C103.265 5.45565 103.18 5.4375 103.094 5.4375H87.1758L86.6709 2.76563C86.6137 2.46304 86.4476 2.18935 86.2017 1.99231C85.9557 1.79527 85.6455 1.68739 85.3252 1.6875H83.5625C83.4071 1.6875 83.2581 1.74676 83.1482 1.85225C83.0383 1.95774 82.9766 2.10082 82.9766 2.25C82.9766 2.39918 83.0383 2.54226 83.1482 2.64775C83.2581 2.75324 83.4071 2.8125 83.5625 2.8125H85.3203C85.3666 2.81178 85.4116 2.82683 85.4473 2.85499C85.4831 2.88314 85.5073 2.92257 85.5156 2.96625L88.0068 16.1194C88.0859 16.539 88.2988 16.9246 88.6162 17.2228C88.2329 17.5171 87.9467 17.9117 87.7922 18.3589C87.6377 18.8061 87.6215 19.2867 87.7456 19.7426C87.8697 20.1984 88.1287 20.61 88.4914 20.9275C88.854 21.2449 89.3048 21.4547 89.789 21.5313C90.2733 21.608 90.7703 21.5483 91.2199 21.3594C91.6695 21.1706 92.0525 20.8607 92.3225 20.4672C92.5925 20.0738 92.7379 19.6136 92.7412 19.1425C92.7444 18.6713 92.6054 18.2094 92.3408 17.8125H97.4404C97.1368 18.2687 97 18.8089 97.0516 19.348C97.1031 19.8871 97.3402 20.3943 97.7253 20.7897C98.1105 21.1852 98.6218 21.4463 99.1786 21.5318C99.7354 21.6174 100.306 21.5226 100.801 21.2624C101.295 21.0022 101.685 20.5913 101.909 20.0947C102.134 19.598 102.18 19.0437 102.039 18.5194C101.899 17.995 101.581 17.5303 101.136 17.1986C100.69 16.8669 100.142 16.6871 99.5781 16.6875H90.1221C89.8934 16.6875 89.6719 16.6105 89.4963 16.4698C89.3207 16.3292 89.2021 16.1338 89.1611 15.9178L88.8096 14.0625H100.369C100.872 14.0626 101.36 13.8932 101.746 13.5838C102.132 13.2744 102.393 12.8446 102.483 12.3694L103.67 6.10031C103.685 6.01941 103.682 5.93627 103.66 5.85674C103.638 5.77721 103.599 5.70322 103.544 5.64ZM91.5703 19.125C91.5703 19.3846 91.4901 19.6383 91.3399 19.8542C91.1897 20.07 90.9761 20.2383 90.7263 20.3376C90.4765 20.4369 90.2016 20.4629 89.9364 20.4123C89.6712 20.3616 89.4276 20.2366 89.2364 20.0531C89.0452 19.8695 88.915 19.6357 88.8622 19.3811C88.8095 19.1265 88.8365 18.8626 88.94 18.6227C89.0435 18.3829 89.2187 18.1779 89.4436 18.0337C89.6684 17.8895 89.9327 17.8125 90.2031 17.8125C90.5657 17.8125 90.9135 17.9508 91.1699 18.1969C91.4263 18.4431 91.5703 18.7769 91.5703 19.125ZM100.945 19.125C100.945 19.3846 100.865 19.6383 100.715 19.8542C100.565 20.07 100.351 20.2383 100.101 20.3376C99.8515 20.4369 99.5766 20.4629 99.3114 20.4123C99.0462 20.3616 98.8026 20.2366 98.6114 20.0531C98.4202 19.8695 98.29 19.6357 98.2372 19.3811C98.1845 19.1265 98.2115 18.8626 98.315 18.6227C98.4185 18.3829 98.5937 18.1779 98.8186 18.0337C99.0434 17.8895 99.3077 17.8125 99.5781 17.8125C99.9407 17.8125 100.288 17.9508 100.545 18.1969C100.801 18.4431 100.945 18.7769 100.945 19.125ZM101.33 12.1678C101.289 12.3838 101.171 12.5792 100.995 12.7198C100.819 12.8605 100.598 12.9375 100.369 12.9375H88.5967L87.3896 6.5625H102.392L101.33 12.1678Z" fill="black"/>
</svg>
